<svg t="1517817088242" class="icon" style="" viewBox="0 0 1024 1024" version="1.1" xmlns="http://www.w3.org/2000/svg" p-id="2222" xmlns:xlink="http://www.w3.org/1999/xlink" width="200" height="200">

  <path
    d="M680.163418 796.389579l-1.741986-0.301761-1.056165 1.440225c-10.397053 14.141638-20.506061 27.720903-30.203576 40.614346l-2.990182 3.964048 4.910482 0.562374c102.228545 11.71383 168.27315 35.498118 168.27315 60.530601 0 37.459567-136.985975 67.937472-305.341424 67.937472s-305.341424-30.477905-305.341424-67.937472c0-25.032483 66.044605-48.803054 168.218284-60.530601l4.937914-0.562374-2.990182-3.964048c-9.711232-12.879727-19.833956-26.458991-30.176144-40.641779l-1.056165-1.426509-1.741986 0.315478c-119.140901 21.150733-190.246869 61.079258-190.246869 106.809832 0 66.606979 160.78398 120.800589 358.396571 120.800589 197.626308 0 358.396571-54.193611 358.396571-120.800589C870.410287 857.468837 799.30432 817.540312 680.163418 796.389579z"
    p-id="2223"></path>
  <path
    d="M894.112276 380.287991c0-209.683049-171.400496-380.287991-382.09856-380.287991-210.711781 0-382.125993 170.604943-382.125993 380.287991 0 119.236916 120.251932 287.30432 357.436421 499.511191 13.702712 12.276204 20.382613 18.284 22.522376 20.807823l2.167196 2.592405 2.167196-2.592405c2.139763-2.523823 8.819664-8.531619 22.522376-20.807823C773.887777 667.592311 894.112276 499.524908 894.112276 380.287991zM515.346809 819.323448l-3.333092 4.183511-3.333092-4.183511c-9.436903-11.823562-30.95798-32.027861-58.198808-57.622718-100.033916-94.012404-267.497797-251.339843-267.497797-381.426455 0-180.549354 147.602491-327.424874 329.029697-327.424874s329.029697 146.889237 329.029697 327.424874c0 130.086612-167.463881 287.414051-267.497797 381.426455C546.304789 787.295586 524.769995 807.513603 515.346809 819.323448z"
    p-id="2224"></path>
  <path
    d="M732.436729 380.287991c0-120.992619-98.895452-219.421713-220.423013-219.421713-121.554993 0-220.450445 98.429094-220.450445 219.421713 0 120.978903 98.895452 219.407997 220.450445 219.407997C633.541277 599.695988 732.436729 501.253178 732.436729 380.287991zM670.82253 380.287991c0 87.126756-71.243132 158.040694-158.808814 158.040694s-158.836247-70.900221-158.836247-158.040694c0-87.126756 71.270565-158.040694 158.836247-158.040694S670.82253 293.147519 670.82253 380.287991z"
    p-id="2225"></path>

</svg>
